<svg xmlns="http://www.w3.org/2000/svg" version="1.1" xmlns:xlink="http://www.w3.org/1999/xlink" xmlns:svgjs="http://svgjs.dev/svgjs" width="1500" height="1500" viewBox="0 0 1500 1500"><rect width="1500" height="1500" fill="#ffffff"></rect><g transform="matrix(0.6666666666666666,0,0,0.6666666666666666,249.39393939393938,685.541185815276)"><svg viewBox="0 0 396 51" data-background-color="#e5fc54" preserveAspectRatio="xMidYMid meet" height="193" width="1500" xmlns="http://www.w3.org/2000/svg" xmlns:xlink="http://www.w3.org/1999/xlink"><g id="tight-bounds" transform="matrix(1,0,0,1,0.2400000000000091,0.04973722866003527)"><svg viewBox="0 0 395.52 50.90052554267994" height="50.90052554267994" width="395.52"><g><svg viewBox="0 0 395.52000000000004 50.900525542679944" height="50.90052554267994" width="395.52"><g><svg viewBox="0 0 395.52000000000004 50.900525542679944" height="50.900525542679944" width="395.52000000000004"><g id="textblocktransform"><svg viewBox="0 0 395.52000000000004 50.900525542679944" height="50.900525542679944" width="395.52000000000004" id="textblock"><g><svg viewBox="0 0 395.52000000000004 50.900525542679944" height="50.900525542679944" width="395.52000000000004"><g transform="matrix(1,0,0,1,0,0)"><svg width="395.52000000000004" viewBox="2.44 -37.74 299.15 38.5" height="50.900525542679944" data-palette-color="#2454ff"><path d="M2.44-21.09L2.44-25.29 10.5-25.29 10.5-22.34 10.55-22.34Q11.38-23.05 12.29-23.67 13.21-24.29 14.21-24.76 15.21-25.22 16.3-25.49 17.38-25.76 18.55-25.76L18.55-25.76Q21.29-25.76 23.27-24.74 25.24-23.73 26.32-21.58L26.32-21.58Q27.25-22.41 28.27-23.18 29.3-23.95 30.41-24.51 31.52-25.07 32.74-25.42 33.96-25.76 35.28-25.76L35.28-25.76Q37.33-25.76 38.96-25.2 40.6-24.63 41.75-23.49 42.9-22.34 43.49-20.54 44.09-18.75 44.09-16.31L44.09-16.31 44.09-4.2 47.61-4.2 47.61 0 35.79 0 35.79-4.2 39.36-4.2 39.36-15.75Q39.36-18.65 37.89-20.15 36.43-21.66 33.67-21.66L33.67-21.66Q32.03-21.66 30.32-20.87 28.61-20.09 27.39-18.9L27.39-18.9 27.39-4.2 30.88-4.2 30.88 0 19.09 0 19.09-4.2 22.66-4.2 22.66-15.75Q22.66-18.65 21.18-20.15 19.7-21.66 16.94-21.66L16.94-21.66Q15.36-21.66 13.75-20.9 12.13-20.14 10.69-19.02L10.69-19.02 10.69-4.2 14.26-4.2 14.26 0 2.44 0 2.44-4.2 5.96-4.2 5.96-21.09 2.44-21.09ZM52.29-21.09L52.29-25.29 60.54-25.29 60.54-4.2 64.35-4.2 64.35 0 52.34 0 52.34-4.2 55.95-4.2 55.95-21.09 52.29-21.09ZM55.1-34.25L55.1-34.25Q55.1-34.89 55.36-35.46 55.61-36.04 56.04-36.46 56.47-36.89 57.05-37.15 57.64-37.4 58.3-37.4L58.3-37.4Q58.93-37.4 59.51-37.15 60.08-36.89 60.51-36.46 60.94-36.04 61.19-35.46 61.45-34.89 61.45-34.25L61.45-34.25Q61.45-33.59 61.19-33.01 60.94-32.42 60.51-31.97 60.08-31.52 59.51-31.26 58.93-31.01 58.3-31.01L58.3-31.01Q57.64-31.01 57.05-31.26 56.47-31.52 56.04-31.97 55.61-32.42 55.36-33.01 55.1-33.59 55.1-34.25ZM85.18 0L85.18-4.2 88.74-4.2 88.74-15.75Q88.74-18.65 87.26-20.15 85.79-21.66 83.03-21.66L83.03-21.66Q81.44-21.66 79.83-20.9 78.22-20.14 76.78-19.02L76.78-19.02 76.78-4.2 80.34-4.2 80.34 0 68.53 0 68.53-4.2 72.04-4.2 72.04-21.09 68.53-21.09 68.53-25.29 76.58-25.29 76.58-22.31 76.63-22.31Q77.44-23.02 78.35-23.66 79.27-24.29 80.27-24.76 81.27-25.22 82.36-25.49 83.44-25.76 84.64-25.76L84.64-25.76Q86.66-25.76 88.3-25.2 89.94-24.63 91.08-23.49 92.23-22.34 92.85-20.54 93.48-18.75 93.48-16.31L93.48-16.31 93.48-4.2 96.99-4.2 96.99 0 85.18 0ZM117.11-21.09L117.11-25.29 125.26-25.29 125.26-4.2 128.07-4.2 128.07 0 120.7 0 120.7-2.34Q118.99-1.03 116.97-0.29 114.96 0.44 112.66 0.44L112.66 0.44Q110.76 0.44 109.21-0.11 107.66-0.66 106.57-1.82 105.49-2.98 104.9-4.76 104.31-6.54 104.31-9.01L104.31-9.01 104.31-21.09 100.9-21.09 100.9-25.29 109.05-25.29 109.05-9.55Q109.05-6.64 110.39-5.15 111.74-3.66 114.25-3.66L114.25-3.66Q115.74-3.66 117.39-4.2 119.04-4.74 120.5-5.69L120.5-5.69 120.5-21.09 117.11-21.09ZM168.98 0.15L164.44 0.15 164.44-7.28Q163.52-5.35 162.12-3.92 160.73-2.49 159.02-1.56 157.31-0.63 155.37-0.17 153.43 0.29 151.43 0.29L151.43 0.29Q147.82 0.29 144.77-0.92 141.71-2.12 139.24-4.76 136.76-7.4 135.45-11.01 134.15-14.62 134.15-18.55L134.15-18.55Q134.15-22.51 135.45-26.03 136.76-29.54 139.11-32.15 141.47-34.77 144.73-36.25 147.99-37.74 151.8-37.74L151.8-37.74Q155.31-37.74 157.84-36.74 160.37-35.74 162.16-34.31 163.95-32.89 165.03-31.59L165.03-31.59 167.4-31.59 167.4-27.25 162.15-27.25Q160.51-30.03 157.81-31.64 155.12-33.25 151.77-33.2L151.77-33.2Q148.96-33.2 146.62-32.01 144.28-30.81 142.6-28.78 140.93-26.76 140-24.12 139.08-21.48 139.08-18.55L139.08-18.55Q139.08-15.31 140.1-12.52 141.13-9.74 142.71-8.01 144.3-6.27 146.63-5.14 148.96-4 151.8-4L151.8-4Q156.48-4 159.49-6.29 162.49-8.57 163.69-13.4L163.69-13.4 153.33-13.4 153.33-17.6 168.98-17.6 168.98 0.15ZM190.78 0L190.78-2.34Q189.34-1 187.6-0.15 185.85 0.71 183.63 0.71L183.63 0.71Q181.77 0.71 180.22 0.12 178.67-0.46 177.55-1.48 176.43-2.49 175.81-3.83 175.18-5.18 175.18-6.69L175.18-6.69Q175.18-8.3 175.66-9.55 176.13-10.79 176.93-11.71 177.72-12.62 178.78-13.24 179.85-13.87 181.01-14.25 182.17-14.62 183.37-14.78 184.58-14.94 185.68-14.94L185.68-14.94Q187.44-14.94 188.63-14.83 189.83-14.72 190.81-14.53L190.81-14.53 190.83-16.6Q190.83-17.94 190.44-18.93 190.05-19.92 189.34-20.57 188.63-21.22 187.65-21.53 186.66-21.85 185.44-21.85L185.44-21.85Q184.29-21.85 183.24-21.69 182.19-21.53 181.27-21.28 180.36-21.02 179.59-20.69 178.82-20.36 178.28-20L178.28-20 176.79-23.14Q177.7-23.73 178.77-24.23 179.85-24.73 181.03-25.09 182.21-25.44 183.45-25.65 184.68-25.85 185.88-25.85L185.88-25.85Q188.07-25.85 189.83-25.33 191.59-24.8 192.81-23.71 194.03-22.61 194.69-20.91 195.35-19.21 195.35-16.85L195.35-16.85 195.32-4.2 198.13-4.2 198.13 0 190.78 0ZM184.63-3.1L184.63-3.1Q185.53-3.1 186.44-3.32 187.34-3.54 188.15-3.92 188.95-4.3 189.64-4.8 190.32-5.3 190.78-5.83L190.78-5.83 190.81-11.55 185.53-11.55Q184.22-11.55 183.13-11.25 182.04-10.96 181.25-10.4 180.46-9.84 180.02-9.01 179.58-8.18 179.58-7.1L179.58-7.1Q179.58-6.1 179.94-5.36 180.31-4.61 180.98-4.11 181.65-3.61 182.58-3.36 183.51-3.1 184.63-3.1ZM203.26-21.09L203.26-25.29 211.31-25.29 211.31-22.34 211.36-22.34Q212.19-23.05 213.11-23.67 214.02-24.29 215.02-24.76 216.03-25.22 217.11-25.49 218.2-25.76 219.37-25.76L219.37-25.76Q222.1-25.76 224.08-24.74 226.06-23.73 227.13-21.58L227.13-21.58Q228.06-22.41 229.09-23.18 230.11-23.95 231.22-24.51 232.33-25.07 233.55-25.42 234.78-25.76 236.09-25.76L236.09-25.76Q238.14-25.76 239.78-25.2 241.42-24.63 242.56-23.49 243.71-22.34 244.31-20.54 244.91-18.75 244.91-16.31L244.91-16.31 244.91-4.2 248.42-4.2 248.42 0 236.61 0 236.61-4.2 240.17-4.2 240.17-15.75Q240.17-18.65 238.71-20.15 237.24-21.66 234.48-21.66L234.48-21.66Q232.85-21.66 231.14-20.87 229.43-20.09 228.21-18.9L228.21-18.9 228.21-4.2 231.7-4.2 231.7 0 219.91 0 219.91-4.2 223.47-4.2 223.47-15.75Q223.47-18.65 221.99-20.15 220.52-21.66 217.76-21.66L217.76-21.66Q216.17-21.66 214.56-20.9 212.95-20.14 211.51-19.02L211.51-19.02 211.51-4.2 215.07-4.2 215.07 0 203.26 0 203.26-4.2 206.77-4.2 206.77-21.09 203.26-21.09ZM275.81-12.06L257.6-12.06Q257.6-10.99 257.76-10.1 257.92-9.2 258.21-8.4L258.21-8.4Q259.11-5.96 261.1-4.72 263.09-3.49 265.61-3.49L265.61-3.49Q267.59-3.49 269.45-4.04 271.32-4.59 273.37-5.76L273.37-5.76 275.2-2.66Q272.71-0.95 270.2-0.12 267.68 0.71 264.97 0.71L264.97 0.71Q262.41 0.71 260.22-0.15 258.04-1 256.46-2.69 254.89-4.37 254-6.88 253.11-9.4 253.11-12.74L253.11-12.74Q253.11-15.45 253.86-17.86 254.62-20.26 256.12-22.06 257.62-23.85 259.85-24.9 262.07-25.95 265.02-25.95L265.02-25.95Q267.88-25.95 269.79-25.09 271.71-24.22 272.92-22.79 274.13-21.36 274.75-19.53 275.37-17.7 275.62-15.8L275.62-15.8Q275.74-14.87 275.78-13.92 275.81-12.96 275.81-12.06L275.81-12.06ZM264.7-22.14L264.7-22.14Q263.12-22.14 261.93-21.69 260.75-21.24 259.92-20.4 259.09-19.56 258.59-18.33 258.09-17.11 257.84-15.6L257.84-15.6 270.95-15.6Q270.86-17.02 270.5-18.21 270.15-19.41 269.42-20.29 268.68-21.17 267.54-21.66 266.39-22.14 264.7-22.14ZM296.59-18.51Q296.59-19.53 296.11-20.25 295.63-20.97 294.88-21.42 294.12-21.88 293.19-22.08 292.27-22.29 291.39-22.29L291.39-22.29Q290.41-22.29 289.59-22.07 288.77-21.85 288.19-21.44 287.6-21.02 287.27-20.42 286.94-19.82 286.94-19.09L286.94-19.09Q286.94-17.82 287.71-17.08 288.48-16.33 290.29-15.7L290.29-15.7 295.15-13.99Q298.27-12.94 299.71-11.13 301.15-9.33 301.15-6.81L301.15-6.81Q301.15-5.13 300.48-3.72 299.81-2.32 298.58-1.33 297.34-0.34 295.61 0.21 293.88 0.76 291.75 0.76L291.75 0.76Q288.8 0.76 286.94-0.2 285.09-1.15 284.09-2.71L284.09-2.71 281.55-2.71 281.55-6.91 286.6-6.91Q286.6-5.86 287.05-5.11 287.5-4.37 288.25-3.91 288.99-3.44 289.93-3.22 290.87-3 291.85-3L291.85-3Q292.8-3 293.68-3.23 294.56-3.47 295.23-3.92 295.9-4.37 296.29-5 296.68-5.64 296.68-6.45L296.68-6.45Q296.68-7.67 295.89-8.52 295.1-9.38 293.19-10.06L293.19-10.06 288.36-11.87Q285.4-12.92 283.98-14.54 282.55-16.16 282.55-18.6L282.55-18.6Q282.55-20.21 283.15-21.58 283.74-22.95 284.88-23.94 286.02-24.93 287.65-25.49 289.29-26.05 291.39-26.05L291.39-26.05Q294.1-26.05 295.93-25.29 297.76-24.54 299.22-22.71L299.22-22.71 301.59-22.71 301.59-18.51 296.59-18.51Z" opacity="1" transform="matrix(1,0,0,1,0,0)" fill="#000000" class="wordmark-text-0" data-fill-palette-color="primary" id="text-0"></path></svg></g></svg></g></svg></g></svg></g></svg></g><defs></defs></svg><rect width="395.52" height="50.90052554267994" fill="none" stroke="none" visibility="hidden"></rect></g></svg></g></svg>